<svg xmlns="http://www.w3.org/2000/svg" width="1000" height="399" viewBox="0 0 1000 399">
  <g id="logo-new-chekin-landscape" transform="translate(-2847 15589)">
    <rect id="Rectangle_3204" data-name="Rectangle 3204" width="1000" height="399" transform="translate(2847 -15589)" fill="#fff" opacity="0"/>
    <g id="logo" transform="translate(2923.294 -15529.055)">
      <g id="Group_12974" data-name="Group 12974" transform="translate(0 0)">
        <g id="Group_13142" data-name="Group 13142" transform="translate(0 0)">
          <path id="Path_26218" data-name="Path 26218" d="M-234.9-9.187c0,56.494,38.9,100.013,99.139,100.013a107.48,107.48,0,0,0,67.8-23.787c5.4-4.6,5.673-10.272,1.621-15.678l-5.4-7.3c-4.322-6.217-9.725-6.217-15.668-1.892-8.915,6.487-25.393,16.759-47,16.759-41.331,0-64.562-32.707-64.562-68.658,0-35.41,22.421-65.955,64.292-65.955,19.72,0,34.847,8.109,43.222,13.515,6.483,4.055,11.616,3.514,15.4-2.7l4.863-7.839c3.782-5.947,3.512-11.353-2.161-15.678-10.265-7.3-31.335-19.192-62.671-19.192C-194.108-107.578-234.9-64.87-234.9-9.187ZM-38.511,76.23c0,7.569,4.052,11.353,11.346,11.353h11.616Q-4.2,87.583-4.2,76.23V23.52c0-26.22,15.668-45.682,39.71-45.682,17.288,0,21.611,11.353,21.611,28.112V76.23q0,11.353,11.346,11.353H80.078c7.294,0,11.346-3.784,11.346-11.353V-1.077c0-36.491-17.559-52.439-48.084-52.439-23.772,0-41.061,14.6-47.814,27.842h-.54A78.3,78.3,0,0,0-4.2-37.3V-92.981c0-7.3-3.782-11.353-11.346-11.353H-27.165c-7.294,0-11.346,4.055-11.346,11.353ZM114.926,18.655c0,39.194,28.364,72.172,74.017,72.172a87.038,87.038,0,0,0,46.733-13.786c5.943-3.514,7.023-8.92,3.782-15.137L236.216,56.5c-3.512-6.217-8.374-7.028-15.128-3.784-6.483,4.055-17.018,8.92-29.715,8.92-20.8,0-39.17-12.975-41.331-37.843h84.012a11.942,11.942,0,0,0,11.886-11.623c0-37.843-21.881-65.684-61.051-65.684C143.56-53.517,114.926-23.783,114.926,18.655ZM150.854,2.977C154.1-15.4,166.521-27.567,184.08-27.567c15.668,0,27.284,11.353,27.824,30.545ZM270.793,76.23c0,7.569,4.052,11.353,11.346,11.353h11.616q11.345,0,11.346-11.353V27.3h17.829l32.146,52.439c2.972,5.406,7.024,7.839,13.237,7.839H382.9c9.185,0,12.156-5.676,7.564-13.515L349.943,11.9v-.541L384.25-36.758c5.132-7.3,2.161-13.515-7.023-13.515H364.26c-6.213,0-10.265,2.163-13.507,7.569L322.119-1.618H305.1V-92.981c0-7.3-3.782-11.353-11.346-11.353H282.139c-7.294,0-11.346,4.055-11.346,11.353Zm143.982,0c0,7.569,3.782,11.353,11.076,11.353h11.886c7.294,0,11.076-3.784,11.076-11.353V-38.92c0-7.3-3.782-11.353-11.076-11.353H425.851c-7.293,0-11.076,4.055-11.076,11.353Zm68.074,0c0,7.569,3.782,11.353,11.076,11.353h11.886c7.294,0,11.075-3.784,11.075-11.353V22.98c0-24.868,15.4-45.141,39.71-45.141,17.289,0,21.611,11.353,21.611,28.112V76.23c0,7.569,4.052,11.353,11.346,11.353h11.616q11.346,0,11.346-11.353V-1.077c0-36.491-17.559-52.439-48.084-52.439-27.824,0-42.951,17.57-48.894,29.193H515a44.1,44.1,0,0,0,.54-6.217V-38.92c0-7.3-3.782-11.353-11.076-11.353H493.925c-7.294,0-11.076,4.055-11.076,11.353Z" transform="translate(234.898 157.783)" fill="#19194b"/>
          <g id="tick" transform="translate(620.516)">
            <g id="Group_12966" data-name="Group 12966" transform="translate(0)">
              <path id="Path_26207" data-name="Path 26207" d="M144.923,237.456a10.233,10.233,0,0,1,0,14.213L137,259.6a10.233,10.233,0,0,1-14.213,0L88.07,224.609a10.233,10.233,0,0,1,0-14.213L96,202.47a10.234,10.234,0,0,1,14.213,0Z" transform="translate(-85.2 -174.18)" fill="#385bf8"/>
              <path id="Path_26208" data-name="Path 26208" d="M227.4,128.07a10.234,10.234,0,0,1,14.213,0L249.542,136a10.234,10.234,0,0,1,0,14.213L189.41,210.068a10.233,10.233,0,0,1-14.213,0l-7.926-7.926a10.233,10.233,0,0,1,0-14.213Z" transform="translate(-137.34 -125.2)" fill="#385bf8"/>
            </g>
          </g>
        </g>
      </g>
    </g>
  </g>
</svg>
