<svg xmlns="http://www.w3.org/2000/svg" viewBox="0 0 204 200" width="204" height="200">
  <rect width="204" height="200" fill="#F0F3FF"></rect>

  
  <circle cx="170" cy="34" r="10" fill="#FFFFFF"></circle>
  <circle cx="174" cy="32" r="9" fill="#F0F3FF"></circle>

  
  <g fill="#385BF8" opacity=".4">
    <circle cx="30" cy="28" r="1.5"></circle>
    <circle cx="70" cy="18" r="1"></circle>
    <circle cx="130" cy="22" r="1"></circle>
    <circle cx="50" cy="46" r="1"></circle>
  </g>

  
  <rect x="0" y="172" width="204" height="10" fill="#385BF8" opacity=".12"></rect>
  <rect x="0" y="180" width="204" height="2" fill="#DEDEEB"></rect>

  
  <g>
    <rect x="32" y="140" width="4" height="32" fill="#161643" opacity=".5"></rect>
    <path d="M34 66 L58 110 L10 110 Z" fill="#274BF0"></path>
    <path d="M34 86 L60 128 L8 128 Z" fill="#274BF0"></path>
    <path d="M34 106 L62 148 L6 148 Z" fill="#385BF8"></path>
  </g>

  
  <g>
    <rect x="166" y="152" width="3" height="20" fill="#161643" opacity=".5"></rect>
    <path d="M167.5 108 L184 140 L151 140 Z" fill="#274BF0"></path>
    <path d="M167.5 122 L186 154 L149 154 Z" fill="#385BF8"></path>
  </g>

  
  <g transform="translate(68 94)">
    
    <path d="M36 0 L80 78 L-8 78 Z" fill="#274BF0"></path>
    
    <path d="M34 4 L72 78 L-4 78 Z" fill="#385BF8"></path>
    
    <path d="M34 20 L50 78 L18 78 Z" fill="#161643"></path>
    
    <path d="M34 34 L44 78 L24 78 Z" fill="#FF2467" opacity=".7"></path>
    
    <rect x="33" y="-4" width="2" height="8" fill="#161643"></rect>
    
    <line x1="-4" y1="78" x2="-18" y2="86" stroke="#161643" stroke-width="1" opacity=".5"></line>
    <line x1="72" y1="78" x2="86" y2="86" stroke="#161643" stroke-width="1" opacity=".5"></line>
    
    <rect x="-20" y="84" width="3" height="4" fill="#161643" opacity=".5"></rect>
    <rect x="86" y="84" width="3" height="4" fill="#161643" opacity=".5"></rect>
  </g>

  
  <g transform="translate(22 160)">
    
    <rect x="-2" y="10" width="22" height="3" rx="1.5" fill="#161643" opacity=".5" transform="rotate(-10 9 11.5)"></rect>
    <rect x="-2" y="14" width="22" height="3" rx="1.5" fill="#161643" opacity=".5" transform="rotate(10 9 15.5)"></rect>
    
    <path d="M9 -2 Q 2 6 6 12 Q 9 8 9 14 Q 14 6 9 -2 Z" fill="#FF2467"></path>
    <path d="M9 2 Q 5 8 8 12 Q 9 9 9 13 Q 12 8 9 2 Z" fill="#FFFFFF" opacity=".6"></path>
  </g>
</svg>