<svg xmlns="http://www.w3.org/2000/svg" viewBox="0 0 204 200" width="204" height="200">
  <rect width="204" height="200" fill="#EFF6FF"></rect>

  
  <rect x="0" y="172" width="204" height="10" fill="#385BF8" opacity=".1"></rect>
  <rect x="0" y="180" width="204" height="2" fill="#DEDEEB"></rect>

  
  <g>
    
    <rect x="39" y="94" width="70" height="86" fill="#FFFFFF" stroke="#DEDEEB"></rect>
    
    <rect x="109" y="70" width="56" height="110" fill="#FFFFFF" stroke="#DEDEEB"></rect>
    
    <rect x="39" y="92" width="70" height="3" fill="#FF2467"></rect>
    <rect x="109" y="68" width="56" height="3" fill="#FF2467"></rect>

    
    <path d="M62 180 L62 134 Q 62 120 74 120 Q 86 120 86 134 L86 180 Z" fill="#274BF0"></path>
    <line x1="74" y1="120" x2="74" y2="180" stroke="#FFFFFF" stroke-width="1" opacity=".3"></line>

    
    
    <g>
      <rect x="45" y="108" width="14" height="18" fill="#385BF8" opacity=".18"></rect>
      <rect x="45" y="108" width="3" height="18" fill="#385BF8"></rect>
      <rect x="56" y="108" width="3" height="18" fill="#385BF8"></rect>
    </g>
    
    <g>
      <rect x="89" y="108" width="14" height="18" fill="#385BF8" opacity=".18"></rect>
      <rect x="89" y="108" width="3" height="18" fill="#385BF8"></rect>
      <rect x="100" y="108" width="3" height="18" fill="#385BF8"></rect>
    </g>
    
    <g>
      <rect x="45" y="140" width="14" height="18" fill="#385BF8" opacity=".18"></rect>
      <rect x="45" y="140" width="3" height="18" fill="#385BF8"></rect>
      <rect x="56" y="140" width="3" height="18" fill="#385BF8"></rect>
    </g>

    
    
    <rect x="117" y="84" width="40" height="22" fill="#385BF8" opacity=".18"></rect>
    <line x1="137" y1="84" x2="137" y2="106" stroke="#DEDEEB"></line>
    
    <rect x="117" y="118" width="40" height="20" fill="#385BF8" opacity=".18"></rect>
    <line x1="137" y1="118" x2="137" y2="138" stroke="#DEDEEB"></line>
    
    <rect x="113" y="142" width="48" height="3" fill="#385BF8"></rect>
    <g stroke="#385BF8" stroke-width="1">
      <line x1="117" y1="145" x2="117" y2="154"></line>
      <line x1="125" y1="145" x2="125" y2="154"></line>
      <line x1="133" y1="145" x2="133" y2="154"></line>
      <line x1="141" y1="145" x2="141" y2="154"></line>
      <line x1="149" y1="145" x2="149" y2="154"></line>
      <line x1="157" y1="145" x2="157" y2="154"></line>
    </g>
  </g>

  
  <g transform="translate(70 160)">
    <rect x="0" y="0" width="64" height="14" rx="2" fill="#385BF8" opacity=".35"></rect>
    <rect x="4" y="2.5" width="56" height="9" rx="1.5" fill="#385BF8" opacity=".6"></rect>
    <g stroke="#FFFFFF" stroke-width="1" fill="none" opacity=".6">
      <path d="M12 7 q 4 -2 8 0"></path>
      <path d="M28 8 q 4 -2 8 0"></path>
      <path d="M44 7 q 4 -2 8 0"></path>
    </g>
  </g>

  
  <g transform="translate(50 164)">
    <rect x="0" y="10" width="8" height="8" fill="#FF2467" opacity=".5"></rect>
    <circle cx="4" cy="8" r="5" fill="#385BF8" opacity=".4"></circle>
  </g>
</svg>